# xmcd CD database file
#
# Track frame offsets:
#	150
#	20183
#	38495
#	58528
#
# Disc length: 1023 seconds
#
# Revision: 3
# Processed by: cddbd v1.5.2PL0 Copyright (c) Steve Scherf et al.
# Submitted via: CDex 1.70beta2
#
DISCID=2b03fd04
DTITLE=中野愛子 - フレンズ
DYEAR=2010
DGENRE=Soundtrack
TTITLE0=フレンズ
TTITLE1=ROSA
TTITLE2=フレンズ（カラオケ）
TTITLE3=ROSA（カラオケ）
EXTD=YEAR: 2010
EXTT0=
EXTT1=
EXTT2=
EXTT3=
PLAYORDER=
